<?xml version="1.0" encoding="UTF-8"?>
<svg id="Capa_1" xmlns="http://www.w3.org/2000/svg" viewBox="0 0 595.28 841.89">
  <path d="M426.5,19.76c2.03,14.09,4.33,27.33,5.73,40.67,1.03,9.74,1.08,19.61,1.18,29.43.04,3.57,1.02,5.62,4.21,7.5,32.98,19.54,63.63,42,88.8,71.31,35.55,41.4,59.34,88.5,69.89,142.19,5.14,26.16,6.72,52.59,4.74,79.06-3.71,49.8-18.63,96.13-45.11,138.64-23.27,37.37-53.52,67.83-90.02,92.29-38.43,25.75-80.61,41.77-126.38,47.52-68.49,8.6-133.25-3.12-193.31-38-10.5-6.1-21.04-12.18-31.09-18.98-5.16-3.49-9.25-8.56-13.85-12.89-20.92-19.67-40.86-40.16-56.29-64.63C19.32,493.13,2.81,449.25-2.3,401.1c-7.18-67.59,6.47-130.56,41.71-188.51,40.72-66.96,99.02-111.89,173.88-135.05,22.14-6.85,45.05-10.05,68.1-12.46,40.64-4.25,79.88-14.05,117.1-31.19,9.03-4.16,17.78-8.94,28.02-14.13ZM269.37,295.7c-.29-1.7-.5-2.65-.62-3.61-1.83-15.71-3.88-31.4-5.41-47.14-1.97-20.26-22.37-35.76-45.73-22.47-10.59,6.02-20.68,13.6-29.42,22.1-46.54,45.21-70.92,101.39-79.9,164.92-4.47,31.63-3.17,63.15,2.2,94.53,1.85,10.8,4.47,21.48,7.13,32.12,1.41,5.65,5.34,7.72,11.05,6.48,2.41-.52,4.77-1.42,7.05-2.4,9.15-3.93,18.14-8.25,27.4-11.9,22.44-8.84,45.27-16.73,67.43-26.21,24.36-10.42,40.95-28.57,46.64-54.93,6.39-29.6,5.14-59.46,1.34-89.33-2.85-22.39-5.64-19.92,12.35-34.95,1.02-.85,2.04-1.71,3.09-2.54,3.55-2.83,7.04-2.72,10.33.37,4,3.75,7.73,7.82,11.94,11.3,3.35,2.77,4.38,5.96,4.08,10.08-.72,9.97-1.2,19.95-1.89,29.92-1.5,21.6-3.45,43.18-.17,64.82,3.68,24.24,14.26,44.48,35.22,57.84,9.02,5.75,19.21,9.89,29.23,13.83,23.99,9.44,48.17,18.42,72.34,27.4,14.62,5.44,25.38-.29,28.86-15.62,2.25-9.88,3.91-19.92,5.34-29.95,6.08-42.52,2.38-84.37-9.05-125.64-12.96-46.79-36.71-87.44-71.31-121.32-9.22-9.03-20.58-16.6-32.19-22.31-19.86-9.77-39.26,1.51-42.39,23.41-1.74,12.19-2.74,24.49-4.07,36.74-.51,4.68-1,9.37-1.58,14.79-8.09-5.17-13.38-10.82-13.19-20.15.09-4.49-.29-8.99-.28-13.49.08-31.16.25-62.32.28-93.48,0-12.23-4.22-16.39-16.48-16.84-12.17-.44-16.75,3.95-16.75,16.13,0,35.5-.15,70.99.13,106.49.08,9.77-4.61,15.88-12.97,21.02Z"/>
</svg>